<?xml version="1.0" standalone="no"?>
<!DOCTYPE svg PUBLIC "-//W3C//DTD SVG 20010904//EN"
 "http://www.w3.org/TR/2001/REC-SVG-20010904/DTD/svg10.dtd">
<svg version="1.0" xmlns="http://www.w3.org/2000/svg"
 width="750.000000pt" height="750.000000pt" viewBox="0 0 750.000000 750.000000"
 preserveAspectRatio="xMidYMid meet">
<metadata>
Created by potrace 1.11, written by Peter Selinger 2001-2013
</metadata>
<g transform="translate(0.000000,750.000000) scale(0.100000,-0.100000)"
fill="#000000" stroke="none">
<path d="M811 5453 c-5 -10 -12 -40 -16 -68 -13 -99 -14 -101 -54 -117 l-39
-15 -63 48 c-34 27 -71 49 -81 49 -26 0 -168 -144 -168 -170 0 -12 20 -46 45
-77 49 -59 51 -68 33 -110 -17 -38 -21 -40 -97 -48 -104 -11 -101 -7 -101
-141 0 -132 -5 -127 112 -139 66 -7 67 -8 82 -46 9 -22 16 -44 16 -50 0 -6
-20 -36 -45 -68 -25 -31 -45 -65 -45 -75 0 -24 146 -166 171 -166 11 0 48 21
81 46 59 46 60 46 99 34 43 -14 45 -19 55 -105 11 -97 8 -95 139 -95 132 0
129 -2 140 95 10 87 12 91 54 105 39 12 40 12 99 -34 33 -25 70 -46 82 -46 28
0 170 140 170 166 0 11 -23 47 -50 82 l-49 63 17 37 c9 20 17 38 17 39 1 2 37
8 81 14 43 6 85 16 92 22 17 14 17 220 -1 235 -7 6 -48 17 -90 24 -78 13 -78
13 -97 55 l-18 42 49 63 c27 35 49 69 49 77 0 19 -150 171 -170 171 -9 0 -46
-22 -81 -48 l-64 -49 -40 17 -41 17 -12 83 c-6 46 -17 87 -24 92 -7 4 -61 8
-120 8 -92 0 -109 -2 -117 -17z m218 -453 c159 -80 166 -297 14 -387 -168 -99
-374 65 -319 252 16 53 79 125 126 144 44 17 137 13 179 -9z"/>
</g>
</svg>
